<svg xmlns="http://www.w3.org/2000/svg" xmlns:xlink="http://www.w3.org/1999/xlink" width="1080" zoomAndPan="magnify" viewBox="0 0 810 809.999993" height="1080" preserveAspectRatio="xMidYMid meet" version="1.0"><defs><g/></defs><g fill="#ffffff" fill-opacity="1"><g transform="translate(165.060699, 390.542595)"><g><path d="M 0 0 C -1.164062 -2.019531 -3.160156 -3.832031 -5.984375 -5.4375 C -8.804688 -7.050781 -11.878906 -8.707031 -15.203125 -10.40625 C -20.691406 -13.125 -25.707031 -15.539062 -30.25 -17.65625 C -34.789062 -19.78125 -39.234375 -21.738281 -43.578125 -23.53125 C -47.921875 -25.320312 -52.445312 -27.117188 -57.15625 -28.921875 C -61.875 -30.722656 -67.09375 -32.679688 -72.8125 -34.796875 C -74.40625 -35.367188 -76.019531 -35.648438 -77.65625 -35.640625 C -79.300781 -35.628906 -80.664062 -35.226562 -81.75 -34.4375 L -75.09375 -72.171875 C -74.34375 -71.085938 -73.195312 -70.253906 -71.65625 -69.671875 C -70.125 -69.085938 -68.507812 -68.785156 -66.8125 -68.765625 C -60.71875 -68.804688 -55.144531 -68.863281 -50.09375 -68.9375 C -45.050781 -69.019531 -40.1875 -69.160156 -35.5 -69.359375 C -30.8125 -69.554688 -25.96875 -69.867188 -20.96875 -70.296875 C -15.976562 -70.734375 -10.441406 -71.296875 -4.359375 -71.984375 C -0.640625 -72.441406 2.816406 -72.941406 6.015625 -73.484375 C 9.210938 -74.035156 11.707031 -75.0625 13.5 -76.5625 L 7.296875 -41.390625 C 6.328125 -42.554688 5.066406 -43.550781 3.515625 -44.375 C 1.972656 -45.207031 0.320312 -45.78125 -1.4375 -46.09375 C -2.863281 -46.34375 -5.550781 -46.550781 -9.5 -46.71875 C -13.445312 -46.894531 -17.910156 -46.984375 -22.890625 -46.984375 L -25.09375 -34.453125 C -21.25 -35.304688 -17.460938 -36.03125 -13.734375 -36.625 C -10.003906 -37.21875 -6.378906 -37.207031 -2.859375 -36.59375 C -1.546875 -36.363281 -0.210938 -35.953125 1.140625 -35.359375 C 2.492188 -34.765625 3.5625 -33.945312 4.34375 -32.90625 C 5.132812 -31.863281 5.378906 -30.492188 5.078125 -28.796875 Z M -29.21875 -33.515625 L -26.859375 -46.890625 C -31.085938 -46.816406 -35.316406 -46.65625 -39.546875 -46.40625 C -43.773438 -46.15625 -47.660156 -45.769531 -51.203125 -45.25 C -54.742188 -44.726562 -57.625 -44.0625 -59.84375 -43.25 C -62.070312 -42.445312 -63.289062 -41.453125 -63.5 -40.265625 C -63.757812 -38.785156 -63.34375 -37.507812 -62.25 -36.4375 C -61.15625 -35.363281 -59.628906 -34.460938 -57.671875 -33.734375 C -55.722656 -33.015625 -53.609375 -32.457031 -51.328125 -32.0625 C -47.585938 -31.394531 -43.863281 -31.273438 -40.15625 -31.703125 C -36.457031 -32.140625 -32.8125 -32.742188 -29.21875 -33.515625 Z M -29.21875 -33.515625 "/></g></g></g><g fill="#ffffff" fill-opacity="1"><g transform="translate(178.254304, 317.543219)"><g><path d="M -16.609375 -9.484375 C -20.410156 -11.429688 -23.445312 -13.910156 -25.71875 -16.921875 C -28 -19.941406 -29.707031 -23.3125 -30.84375 -27.03125 C -31.976562 -30.757812 -32.707031 -34.648438 -33.03125 -38.703125 C -33.351562 -42.753906 -33.441406 -46.8125 -33.296875 -50.875 C -33.148438 -54.945312 -32.941406 -58.859375 -32.671875 -62.609375 C -32.398438 -66.367188 -32.242188 -69.804688 -32.203125 -72.921875 C -32.160156 -76.046875 -32.390625 -78.660156 -32.890625 -80.765625 C -33.398438 -82.867188 -34.40625 -84.300781 -35.90625 -85.0625 C -37.082031 -85.664062 -38.195312 -85.601562 -39.25 -84.875 C -40.300781 -84.15625 -41.191406 -83.078125 -41.921875 -81.640625 C -43.210938 -79.128906 -43.984375 -76.453125 -44.234375 -73.609375 C -44.492188 -70.765625 -44.625 -67.769531 -44.625 -64.625 C -44.625 -61.476562 -44.867188 -58.25 -45.359375 -54.9375 C -45.859375 -51.625 -46.988281 -48.25 -48.75 -44.8125 C -49.695312 -42.96875 -51.125 -41.628906 -53.03125 -40.796875 C -54.945312 -39.960938 -56.960938 -39.472656 -59.078125 -39.328125 C -61.203125 -39.179688 -62.988281 -39.148438 -64.4375 -39.234375 C -66.5 -39.398438 -68.488281 -39.726562 -70.40625 -40.21875 C -72.320312 -40.71875 -73.8125 -41.347656 -74.875 -42.109375 C -75.9375 -42.867188 -76.21875 -43.742188 -75.71875 -44.734375 C -75.300781 -45.546875 -74.648438 -46.179688 -73.765625 -46.640625 C -72.878906 -47.097656 -71.90625 -47.734375 -70.84375 -48.546875 C -69.78125 -49.367188 -68.800781 -50.65625 -67.90625 -52.40625 C -67.007812 -54.144531 -66.113281 -56.257812 -65.21875 -58.75 C -64.332031 -61.25 -63.457031 -63.84375 -62.59375 -66.53125 C -61.726562 -69.226562 -60.878906 -71.769531 -60.046875 -74.15625 C -59.210938 -76.539062 -58.414062 -78.484375 -57.65625 -79.984375 C -55.78125 -83.617188 -53.820312 -86.351562 -51.78125 -88.1875 C -49.738281 -90.03125 -47.710938 -91.226562 -45.703125 -91.78125 C -43.703125 -92.34375 -41.859375 -92.503906 -40.171875 -92.265625 C -38.492188 -92.023438 -37.0625 -91.597656 -35.875 -90.984375 C -33.925781 -89.992188 -32.203125 -88.484375 -30.703125 -86.453125 C -29.210938 -84.421875 -27.910156 -82.128906 -26.796875 -79.578125 C -25.679688 -77.023438 -24.679688 -74.40625 -23.796875 -71.71875 C -22.910156 -69.03125 -22.0625 -66.503906 -21.25 -64.140625 C -20.445312 -61.785156 -19.601562 -59.835938 -18.71875 -58.296875 C -16.9375 -53.804688 -15.191406 -49.210938 -13.484375 -44.515625 C -11.773438 -39.816406 -10.144531 -35.4375 -8.59375 -31.375 C -7.050781 -27.3125 -5.585938 -23.914062 -4.203125 -21.1875 C -2.816406 -18.46875 -1.554688 -16.816406 -0.421875 -16.234375 C 0.441406 -15.785156 1.347656 -15.726562 2.296875 -16.0625 C 3.253906 -16.394531 3.941406 -16.96875 4.359375 -17.78125 C 5.441406 -19.894531 5.957031 -22.289062 5.90625 -24.96875 C 5.851562 -27.65625 5.539062 -30.5 4.96875 -33.5 C 4.40625 -36.507812 3.867188 -39.570312 3.359375 -42.6875 C 2.859375 -45.800781 2.644531 -48.828125 2.71875 -51.765625 C 2.800781 -54.703125 3.5 -57.453125 4.8125 -60.015625 C 5.445312 -61.253906 6.3125 -62.367188 7.40625 -63.359375 C 8.5 -64.359375 9.707031 -65.046875 11.03125 -65.421875 C 12.363281 -65.804688 13.695312 -65.660156 15.03125 -64.984375 L 29.5 -57.5625 L 5.6875 -11.078125 C 4.707031 -9.179688 3.363281 -7.828125 1.65625 -7.015625 C -0.0507812 -6.210938 -1.953125 -5.847656 -4.046875 -5.921875 C -6.148438 -5.992188 -8.296875 -6.359375 -10.484375 -7.015625 C -12.671875 -7.679688 -14.710938 -8.503906 -16.609375 -9.484375 Z M -16.609375 -9.484375 "/></g></g></g><g fill="#ffffff" fill-opacity="1"><g transform="translate(206.497981, 260.805269)"><g><path d="M -35.84375 -39 C -36.238281 -38.582031 -36.695312 -38.390625 -37.21875 -38.421875 C -37.75 -38.453125 -38.226562 -38.664062 -38.65625 -39.0625 L -61.546875 -60.78125 L -15.296875 -109.515625 L 7.59375 -87.796875 C 8.019531 -87.398438 8.265625 -86.945312 8.328125 -86.4375 C 8.398438 -85.9375 8.222656 -85.457031 7.796875 -85 C 7.304688 -84.5 6.242188 -84.410156 4.609375 -84.734375 C 2.984375 -85.054688 1.019531 -85.613281 -1.28125 -86.40625 C -3.59375 -87.195312 -6.023438 -88.066406 -8.578125 -89.015625 C -11.140625 -89.972656 -13.59375 -90.828125 -15.9375 -91.578125 C -18.28125 -92.328125 -20.304688 -92.820312 -22.015625 -93.0625 C -23.734375 -93.3125 -24.910156 -93.101562 -25.546875 -92.4375 C -26.421875 -91.507812 -26.519531 -90.539062 -25.84375 -89.53125 C -25.164062 -88.53125 -24.347656 -87.578125 -23.390625 -86.671875 L 24.796875 -40.953125 C 26.597656 -39.253906 28.21875 -38.015625 29.65625 -37.234375 C 31.101562 -36.453125 32.644531 -36.085938 34.28125 -36.140625 L 14.34375 -15.125 C 14.289062 -16.75 13.84375 -18.265625 13 -19.671875 C 12.15625 -21.085938 10.832031 -22.644531 9.03125 -24.34375 L -39.15625 -70.0625 C -40.113281 -70.96875 -41.109375 -71.734375 -42.140625 -72.359375 C -43.179688 -72.984375 -44.140625 -72.835938 -45.015625 -71.921875 C -45.640625 -71.253906 -45.789062 -70.066406 -45.46875 -68.359375 C -45.144531 -66.648438 -44.546875 -64.644531 -43.671875 -62.34375 C -42.796875 -60.039062 -41.8125 -57.640625 -40.71875 -55.140625 C -39.632812 -52.640625 -38.632812 -50.257812 -37.71875 -48 C -36.8125 -45.738281 -36.144531 -43.8125 -35.71875 -42.21875 C -35.289062 -40.625 -35.332031 -39.550781 -35.84375 -39 Z M -35.84375 -39 "/></g></g></g><g fill="#ffffff" fill-opacity="1"><g transform="translate(252.755827, 211.684446)"><g><path d="M -19.765625 -38.53125 C -21.898438 -42.21875 -23.679688 -46.109375 -25.109375 -50.203125 C -26.546875 -54.304688 -27.488281 -58.421875 -27.9375 -62.546875 C -28.394531 -66.679688 -28.285156 -70.640625 -27.609375 -74.421875 C -26.929688 -78.210938 -25.554688 -81.6875 -23.484375 -84.84375 C -21.421875 -88.007812 -18.539062 -90.660156 -14.84375 -92.796875 C -12.90625 -93.921875 -10.90625 -94.742188 -8.84375 -95.265625 C -6.78125 -95.785156 -4.664062 -96.335938 -2.5 -96.921875 C -0.332031 -97.503906 1.867188 -98.445312 4.109375 -99.75 C 5.847656 -100.757812 7.085938 -101.804688 7.828125 -102.890625 C 8.566406 -103.984375 9.148438 -104.988281 9.578125 -105.90625 C 10.015625 -106.832031 10.609375 -107.507812 11.359375 -107.9375 C 12.359375 -108.519531 13.257812 -108.289062 14.0625 -107.25 C 14.863281 -106.207031 15.554688 -104.742188 16.140625 -102.859375 C 16.734375 -100.972656 17.160156 -99 17.421875 -96.9375 C 17.578125 -95.5 17.632812 -93.71875 17.59375 -91.59375 C 17.5625 -89.476562 17.175781 -87.441406 16.4375 -85.484375 C 15.707031 -83.535156 14.4375 -82.039062 12.625 -81 C 9.988281 -79.46875 7.457031 -78.40625 5.03125 -77.8125 C 2.613281 -77.21875 0.289062 -76.875 -1.9375 -76.78125 C -4.175781 -76.6875 -6.34375 -76.628906 -8.4375 -76.609375 C -10.539062 -76.597656 -12.585938 -76.414062 -14.578125 -76.0625 C -16.566406 -75.71875 -18.535156 -74.984375 -20.484375 -73.859375 C -21.734375 -73.128906 -22.5625 -72.195312 -22.96875 -71.0625 C -23.382812 -69.9375 -23.523438 -68.742188 -23.390625 -67.484375 C -23.265625 -66.222656 -23 -65.046875 -22.59375 -63.953125 C -22.195312 -62.859375 -21.796875 -61.957031 -21.390625 -61.25 C -21.191406 -60.90625 -20.835938 -60.265625 -20.328125 -59.328125 C -19.828125 -58.390625 -19.265625 -57.414062 -18.640625 -56.40625 C -18.023438 -55.394531 -17.394531 -54.59375 -16.75 -54 C -16.113281 -53.40625 -15.546875 -53.25 -15.046875 -53.53125 C -14.296875 -53.96875 -13.71875 -54.734375 -13.3125 -55.828125 C -12.914062 -56.921875 -12.257812 -58.164062 -11.34375 -59.5625 C -10.425781 -60.957031 -8.863281 -62.289062 -6.65625 -63.5625 C -4.8125 -64.632812 -2.835938 -65.363281 -0.734375 -65.75 C 1.367188 -66.132812 3.476562 -66.398438 5.59375 -66.546875 C 7.707031 -66.703125 9.726562 -66.921875 11.65625 -67.203125 C 13.59375 -67.484375 15.285156 -68.046875 16.734375 -68.890625 C 17.878906 -69.546875 18.632812 -70.3125 19 -71.1875 C 19.363281 -72.070312 19.609375 -72.863281 19.734375 -73.5625 C 19.859375 -74.269531 20.117188 -74.738281 20.515625 -74.96875 C 21.109375 -75.3125 21.804688 -75.164062 22.609375 -74.53125 C 23.410156 -73.894531 24.15625 -72.976562 24.84375 -71.78125 C 25.570312 -70.53125 26.113281 -69.046875 26.46875 -67.328125 C 26.832031 -65.609375 26.878906 -63.800781 26.609375 -61.90625 C 26.335938 -60.019531 25.625 -58.195312 24.46875 -56.4375 C 23.320312 -54.675781 21.601562 -53.132812 19.3125 -51.8125 C 17.113281 -50.539062 14.847656 -49.847656 12.515625 -49.734375 C 10.191406 -49.617188 7.90625 -49.804688 5.65625 -50.296875 C 3.40625 -50.785156 1.265625 -51.328125 -0.765625 -51.921875 C -2.804688 -52.515625 -4.695312 -52.925781 -6.4375 -53.15625 C -8.175781 -53.394531 -9.664062 -53.15625 -10.90625 -52.4375 C -11.707031 -51.976562 -12.085938 -51.421875 -12.046875 -50.765625 C -12.003906 -50.117188 -11.769531 -49.488281 -11.34375 -48.875 C -10.914062 -48.257812 -10.484375 -47.742188 -10.046875 -47.328125 C -5.898438 -43.597656 -1.503906 -40.726562 3.140625 -38.71875 C 7.796875 -36.71875 12.347656 -35.664062 16.796875 -35.5625 C 21.253906 -35.46875 25.203125 -36.414062 28.640625 -38.40625 C 31.296875 -39.9375 33.253906 -41.566406 34.515625 -43.296875 C 35.773438 -45.023438 36.625 -46.75 37.0625 -48.46875 C 37.507812 -50.195312 37.75 -51.800781 37.78125 -53.28125 C 37.820312 -54.769531 37.910156 -56.054688 38.046875 -57.140625 C 38.191406 -58.222656 38.640625 -58.976562 39.390625 -59.40625 C 39.847656 -59.664062 40.410156 -59.671875 41.078125 -59.421875 C 41.753906 -59.179688 42.597656 -58.1875 43.609375 -56.4375 C 45.078125 -53.894531 46.082031 -50.882812 46.625 -47.40625 C 47.164062 -43.925781 47.097656 -40.320312 46.421875 -36.59375 C 45.742188 -32.875 44.3125 -29.332031 42.125 -25.96875 C 39.9375 -22.613281 36.847656 -19.78125 32.859375 -17.46875 C 28.660156 -15.050781 24.257812 -13.582031 19.65625 -13.0625 C 15.0625 -12.539062 10.457031 -13.078125 5.84375 -14.671875 C 1.238281 -16.273438 -3.25 -19.039062 -7.625 -22.96875 C -12 -26.894531 -16.046875 -32.082031 -19.765625 -38.53125 Z M -19.765625 -38.53125 "/></g></g></g><g fill="#ffffff" fill-opacity="1"><g transform="translate(308.575959, 178.950434)"><g><path d="M 36.421875 -7.625 C 31.710938 -6.46875 27.078125 -6.273438 22.515625 -7.046875 C 17.960938 -7.828125 13.691406 -9.628906 9.703125 -12.453125 C 5.722656 -15.273438 2.179688 -19.179688 -0.921875 -24.171875 C -4.023438 -29.160156 -6.46875 -35.273438 -8.25 -42.515625 C -9.269531 -46.648438 -9.898438 -50.882812 -10.140625 -55.21875 C -10.378906 -59.550781 -10.140625 -63.765625 -9.421875 -67.859375 C -8.710938 -71.960938 -7.503906 -75.734375 -5.796875 -79.171875 C -4.085938 -82.617188 -1.800781 -85.570312 1.0625 -88.03125 C 3.9375 -90.5 7.445312 -92.242188 11.59375 -93.265625 C 13.757812 -93.796875 15.90625 -94.023438 18.03125 -93.953125 C 20.164062 -93.878906 22.351562 -93.820312 24.59375 -93.78125 C 26.832031 -93.75 29.210938 -94.039062 31.734375 -94.65625 C 33.679688 -95.132812 35.160156 -95.796875 36.171875 -96.640625 C 37.179688 -97.484375 38.023438 -98.285156 38.703125 -99.046875 C 39.378906 -99.804688 40.132812 -100.289062 40.96875 -100.5 C 42.09375 -100.78125 42.894531 -100.304688 43.375 -99.078125 C 43.851562 -97.859375 44.113281 -96.257812 44.15625 -94.28125 C 44.207031 -92.3125 44.0625 -90.300781 43.71875 -88.25 C 43.539062 -87.269531 43.285156 -86.140625 42.953125 -84.859375 C 42.628906 -83.585938 42.179688 -82.289062 41.609375 -80.96875 C 41.003906 -79.582031 40.21875 -78.066406 39.25 -76.421875 C 38.289062 -74.785156 37.390625 -73.09375 36.546875 -71.34375 C 35.703125 -69.601562 35.054688 -67.875 34.609375 -66.15625 C 34.160156 -64.4375 34.125 -62.820312 34.5 -61.3125 C 34.84375 -59.914062 35.585938 -58.8125 36.734375 -58 C 37.890625 -57.1875 39.195312 -56.957031 40.65625 -57.3125 C 41.5625 -57.53125 42.0625 -57.796875 42.15625 -58.109375 C 42.257812 -58.429688 42.53125 -58.648438 42.96875 -58.765625 C 43.632812 -58.929688 44.25 -58.488281 44.8125 -57.4375 C 45.375 -56.382812 45.757812 -55.441406 45.96875 -54.609375 C 46.476562 -52.535156 46.34375 -50.421875 45.5625 -48.265625 C 44.78125 -46.117188 43.507812 -44.21875 41.75 -42.5625 C 39.988281 -40.914062 37.929688 -39.804688 35.578125 -39.234375 C 33.335938 -38.671875 31.132812 -38.703125 28.96875 -39.328125 C 26.800781 -39.960938 24.914062 -41.046875 23.3125 -42.578125 C 21.707031 -44.109375 20.632812 -45.992188 20.09375 -48.234375 C 19.46875 -50.753906 19.519531 -53.082031 20.25 -55.21875 C 20.976562 -57.351562 22.023438 -59.300781 23.390625 -61.0625 C 24.765625 -62.832031 26.203125 -64.40625 27.703125 -65.78125 C 29.203125 -67.164062 30.445312 -68.378906 31.4375 -69.421875 C 32.425781 -70.472656 32.84375 -71.332031 32.6875 -72 C 32.414062 -73.0625 31.46875 -73.539062 29.84375 -73.4375 C 26.875 -73.175781 24.140625 -73.300781 21.640625 -73.8125 C 19.140625 -74.332031 16.765625 -74.925781 14.515625 -75.59375 C 12.265625 -76.257812 10.03125 -76.75 7.8125 -77.0625 C 5.601562 -77.375 3.296875 -77.234375 0.890625 -76.640625 C -0.515625 -76.296875 -1.570312 -75.632812 -2.28125 -74.65625 C -2.988281 -73.675781 -3.453125 -72.566406 -3.671875 -71.328125 C -3.898438 -70.085938 -3.972656 -68.878906 -3.890625 -67.703125 C -3.816406 -66.535156 -3.6875 -65.5625 -3.5 -64.78125 C -2.644531 -61.3125 -1.296875 -57.707031 0.546875 -53.96875 C 2.390625 -50.238281 4.617188 -46.675781 7.234375 -43.28125 C 9.859375 -39.894531 12.800781 -36.941406 16.0625 -34.421875 C 19.320312 -31.898438 22.820312 -30.101562 26.5625 -29.03125 C 30.300781 -27.96875 34.179688 -27.929688 38.203125 -28.921875 C 41.179688 -29.648438 43.515625 -30.664062 45.203125 -31.96875 C 46.898438 -33.28125 48.195312 -34.703125 49.09375 -36.234375 C 50 -37.765625 50.675781 -39.238281 51.125 -40.65625 C 51.582031 -42.070312 52.03125 -43.273438 52.46875 -44.265625 C 52.90625 -45.265625 53.539062 -45.867188 54.375 -46.078125 C 54.882812 -46.203125 55.425781 -46.050781 56 -45.625 C 56.570312 -45.207031 57.101562 -44.019531 57.59375 -42.0625 C 58.25 -39.375 58.351562 -36.285156 57.90625 -32.796875 C 57.46875 -29.304688 56.40625 -25.851562 54.71875 -22.4375 C 53.039062 -19.019531 50.691406 -15.972656 47.671875 -13.296875 C 44.648438 -10.617188 40.898438 -8.726562 36.421875 -7.625 Z M 36.421875 -7.625 "/></g></g></g><g fill="#ffffff" fill-opacity="1"><g transform="translate(373.555681, 164.841063)"><g/></g></g><g fill="#ffffff" fill-opacity="1"><g transform="translate(403.038492, 162.043801)"><g><path d="M 16.984375 -74.46875 C 17.410156 -76.90625 17.550781 -78.941406 17.40625 -80.578125 C 17.257812 -82.210938 16.710938 -83.703125 15.765625 -85.046875 L 52.390625 -78.625 C 57.898438 -77.65625 62.253906 -75.851562 65.453125 -73.21875 C 68.648438 -70.582031 70.832031 -67.507812 72 -64 C 73.175781 -60.488281 73.445312 -56.914062 72.8125 -53.28125 C 72.394531 -50.894531 71.46875 -48.519531 70.03125 -46.15625 C 68.59375 -43.800781 66.691406 -41.734375 64.328125 -39.953125 C 61.972656 -38.179688 59.203125 -36.898438 56.015625 -36.109375 C 52.828125 -35.316406 49.273438 -35.265625 45.359375 -35.953125 C 42.242188 -36.503906 39.242188 -37.351562 36.359375 -38.5 C 33.484375 -39.644531 30.878906 -40.726562 28.546875 -41.75 C 26.210938 -42.78125 24.253906 -43.4375 22.671875 -43.71875 C 22.109375 -43.8125 21.617188 -43.773438 21.203125 -43.609375 C 20.796875 -43.453125 20.550781 -43.144531 20.46875 -42.6875 C 20.320312 -41.832031 21.035156 -40.957031 22.609375 -40.0625 C 24.179688 -39.175781 26.238281 -38.320312 28.78125 -37.5 C 31.320312 -36.675781 33.976562 -35.890625 36.75 -35.140625 C 39.519531 -34.390625 42.019531 -33.703125 44.25 -33.078125 C 52.789062 -30.710938 58.753906 -27.34375 62.140625 -22.96875 C 65.535156 -18.59375 66.71875 -13.484375 65.6875 -7.640625 C 65.101562 -4.285156 63.640625 -1.363281 61.296875 1.125 C 58.960938 3.613281 56.085938 5.4375 52.671875 6.59375 C 49.253906 7.75 45.582031 7.984375 41.65625 7.296875 L 0.84375 0.140625 C 2.1875 -0.785156 3.207031 -1.992188 3.90625 -3.484375 C 4.601562 -4.972656 5.164062 -6.9375 5.59375 -9.375 Z M 43.203125 -62.6875 C 40.304688 -63.1875 37.425781 -63.378906 34.5625 -63.265625 C 31.707031 -63.148438 29.101562 -62.726562 26.75 -62 C 24.40625 -61.269531 22.460938 -60.296875 20.921875 -59.078125 C 19.390625 -57.859375 18.472656 -56.394531 18.171875 -54.6875 C 17.835938 -52.75 18.457031 -51.097656 20.03125 -49.734375 C 21.613281 -48.378906 23.566406 -47.5 25.890625 -47.09375 C 30.773438 -46.238281 35.039062 -46.132812 38.6875 -46.78125 C 42.34375 -47.425781 45.238281 -48.492188 47.375 -49.984375 C 49.519531 -51.484375 50.742188 -53.085938 51.046875 -54.796875 C 51.347656 -56.492188 50.835938 -58.101562 49.515625 -59.625 C 48.203125 -61.15625 46.097656 -62.175781 43.203125 -62.6875 Z M 16.390625 -37.953125 C 15.992188 -38.023438 15.707031 -37.972656 15.53125 -37.796875 C 15.351562 -37.617188 15.242188 -37.414062 15.203125 -37.1875 C 15.117188 -36.675781 15.332031 -35.878906 15.84375 -34.796875 C 16.351562 -33.722656 16.992188 -32.5625 17.765625 -31.3125 C 18.546875 -30.0625 19.226562 -28.914062 19.8125 -27.875 C 21.082031 -25.78125 22.507812 -23.492188 24.09375 -21.015625 C 25.6875 -18.546875 27.554688 -16.347656 29.703125 -14.421875 C 31.847656 -12.492188 34.285156 -11.289062 37.015625 -10.8125 C 38.710938 -10.507812 40.113281 -10.597656 41.21875 -11.078125 C 42.332031 -11.566406 43.1875 -12.238281 43.78125 -13.09375 C 44.375 -13.957031 44.742188 -14.816406 44.890625 -15.671875 C 45.253906 -17.773438 44.40625 -20.117188 42.34375 -22.703125 C 40.28125 -25.285156 36.265625 -28.097656 30.296875 -31.140625 C 26.003906 -33.335938 22.882812 -34.972656 20.9375 -36.046875 C 18.988281 -37.128906 17.472656 -37.765625 16.390625 -37.953125 Z M 16.390625 -37.953125 "/></g></g></g><g fill="#ffffff" fill-opacity="1"><g transform="translate(464.494545, 172.28109)"><g><path d="M 38.328125 -77.53125 L 69.71875 -62.390625 C 76.050781 -59.335938 80.644531 -55.890625 83.5 -52.046875 C 86.363281 -48.210938 87.84375 -44.175781 87.9375 -39.9375 C 88.039062 -35.695312 87.078125 -31.472656 85.046875 -27.265625 C 83.597656 -24.253906 81.765625 -21.476562 79.546875 -18.9375 C 77.328125 -16.394531 74.765625 -14.363281 71.859375 -12.84375 C 68.953125 -11.332031 65.773438 -10.523438 62.328125 -10.421875 C 58.890625 -10.328125 55.226562 -11.21875 51.34375 -13.09375 C 48.375 -14.519531 46.015625 -16.175781 44.265625 -18.0625 C 42.523438 -19.957031 41.179688 -21.921875 40.234375 -23.953125 C 39.296875 -25.984375 38.554688 -27.925781 38.015625 -29.78125 C 37.472656 -31.632812 36.953125 -33.207031 36.453125 -34.5 C 35.953125 -35.800781 35.265625 -36.664062 34.390625 -37.09375 C 33.347656 -37.59375 32.519531 -37.664062 31.90625 -37.3125 C 31.289062 -36.96875 30.832031 -36.488281 30.53125 -35.875 C 30.03125 -34.832031 30.070312 -33.53125 30.65625 -31.96875 C 31.25 -30.414062 32.226562 -28.695312 33.59375 -26.8125 C 34.96875 -24.9375 36.550781 -23.003906 38.34375 -21.015625 C 40.144531 -19.035156 41.945312 -17.066406 43.75 -15.109375 C 45.632812 -13.171875 47.617188 -11.070312 49.703125 -8.8125 C 51.796875 -6.5625 53.757812 -4.226562 55.59375 -1.8125 C 57.4375 0.601562 58.96875 3.066406 60.1875 5.578125 C 61.414062 8.085938 62.148438 10.617188 62.390625 13.171875 C 62.628906 15.722656 62.160156 18.21875 60.984375 20.65625 C 59.773438 23.15625 58.523438 24.78125 57.234375 25.53125 C 55.953125 26.28125 54.351562 26.191406 52.4375 25.265625 L 35.59375 17.15625 C 35.082031 16.90625 34.640625 16.53125 34.265625 16.03125 C 33.898438 15.539062 33.878906 14.960938 34.203125 14.296875 C 34.660156 13.359375 35.171875 12.59375 35.734375 12 C 36.304688 11.40625 36.890625 10.753906 37.484375 10.046875 C 38.085938 9.335938 38.703125 8.335938 39.328125 7.046875 C 40.148438 5.328125 40.484375 3.265625 40.328125 0.859375 C 40.179688 -1.546875 39.679688 -4.085938 38.828125 -6.765625 C 37.972656 -9.453125 36.929688 -12.097656 35.703125 -14.703125 C 34.472656 -17.316406 33.203125 -19.722656 31.890625 -21.921875 C 30.578125 -24.117188 29.34375 -25.945312 28.1875 -27.40625 C 27.03125 -28.863281 26.144531 -29.738281 25.53125 -30.03125 C 25 -30.289062 24.53125 -30.257812 24.125 -29.9375 C 23.71875 -29.625 23.46875 -29.363281 23.375 -29.15625 C 22.75 -27.863281 22.6875 -26.453125 23.1875 -24.921875 C 23.695312 -23.390625 24.519531 -21.738281 25.65625 -19.96875 C 26.789062 -18.207031 27.984375 -16.335938 29.234375 -14.359375 C 30.492188 -12.378906 31.578125 -10.304688 32.484375 -8.140625 C 33.390625 -5.984375 33.898438 -3.722656 34.015625 -1.359375 C 34.128906 0.992188 33.585938 3.414062 32.390625 5.90625 C 31.890625 6.945312 31.148438 7.984375 30.171875 9.015625 C 29.191406 10.054688 28.085938 10.820312 26.859375 11.3125 C 25.628906 11.8125 24.363281 11.742188 23.0625 11.109375 L 0.859375 0.40625 C 2.398438 -0.125 3.707031 -1.007812 4.78125 -2.25 C 5.863281 -3.488281 6.945312 -5.222656 8.03125 -7.453125 L 14.453125 -20.78125 L 22.28125 -37.265625 L 36.625 -67.03125 C 37.695312 -69.257812 38.382812 -71.179688 38.6875 -72.796875 C 38.988281 -74.410156 38.867188 -75.988281 38.328125 -77.53125 Z M 57.359375 -48.296875 C 55.390625 -49.242188 53.191406 -50.203125 50.765625 -51.171875 C 48.347656 -52.148438 45.984375 -52.890625 43.671875 -53.390625 C 41.367188 -53.898438 39.300781 -53.953125 37.46875 -53.546875 C 35.644531 -53.140625 34.304688 -52.054688 33.453125 -50.296875 C 32.597656 -48.535156 32.628906 -46.8125 33.546875 -45.125 C 34.460938 -43.4375 35.953125 -41.773438 38.015625 -40.140625 C 40.078125 -38.503906 42.429688 -36.945312 45.078125 -35.46875 C 47.734375 -34 50.414062 -32.613281 53.125 -31.3125 C 55.820312 -30.007812 58.582031 -28.773438 61.40625 -27.609375 C 64.226562 -26.441406 66.921875 -25.5625 69.484375 -24.96875 C 72.046875 -24.375 74.269531 -24.242188 76.15625 -24.578125 C 78.050781 -24.921875 79.425781 -25.972656 80.28125 -27.734375 C 80.957031 -29.140625 80.945312 -30.585938 80.25 -32.078125 C 79.5625 -33.566406 78.40625 -35.050781 76.78125 -36.53125 C 75.164062 -38.007812 73.25 -39.441406 71.03125 -40.828125 C 68.820312 -42.222656 66.523438 -43.554688 64.140625 -44.828125 C 61.753906 -46.109375 59.492188 -47.265625 57.359375 -48.296875 Z M 57.359375 -48.296875 "/></g></g></g><g fill="#ffffff" fill-opacity="1"><g transform="translate(522.923733, 202.412943)"><g><path d="M 0.6875 0.53125 C 2.300781 0.320312 3.765625 -0.273438 5.078125 -1.265625 C 6.390625 -2.253906 7.804688 -3.734375 9.328125 -5.703125 L 49.75 -57.96875 C 51.269531 -59.925781 52.34375 -61.660156 52.96875 -63.171875 C 53.59375 -64.679688 53.804688 -66.25 53.609375 -67.875 L 76.53125 -50.140625 C 74.90625 -49.929688 73.4375 -49.332031 72.125 -48.34375 C 70.8125 -47.363281 69.394531 -45.894531 67.875 -43.9375 L 27.453125 8.328125 C 25.929688 10.296875 24.859375 12.035156 24.234375 13.546875 C 23.609375 15.066406 23.398438 16.640625 23.609375 18.265625 Z M 0.6875 0.53125 "/></g></g></g><g fill="#ffffff" fill-opacity="1"><g transform="translate(547.773429, 219.137444)"><g><path d="M 66.515625 -55.28125 L 83.6875 -35.03125 C 87.082031 -31.03125 89.210938 -26.734375 90.078125 -22.140625 C 90.953125 -17.546875 90.859375 -12.867188 89.796875 -8.109375 C 88.734375 -3.359375 87 1.257812 84.59375 5.75 C 82.195312 10.238281 79.410156 14.414062 76.234375 18.28125 C 73.066406 22.15625 69.8125 25.507812 66.46875 28.34375 C 61.582031 32.476562 57.140625 35.445312 53.140625 37.25 C 49.148438 39.050781 45.484375 39.832031 42.140625 39.59375 C 38.804688 39.363281 35.691406 38.300781 32.796875 36.40625 C 29.910156 34.507812 27.09375 31.9375 24.34375 28.6875 L 0.5625 0.65625 C 2.1875 0.789062 3.738281 0.515625 5.21875 -0.171875 C 6.707031 -0.867188 8.398438 -2.019531 10.296875 -3.625 L 60.6875 -46.375 C 62.582031 -47.976562 63.988281 -49.457031 64.90625 -50.8125 C 65.832031 -52.164062 66.367188 -53.65625 66.515625 -55.28125 Z M 83.734375 -27.375 C 82.015625 -29.394531 79.617188 -29.742188 76.546875 -28.421875 C 73.472656 -27.097656 69.035156 -23.976562 63.234375 -19.0625 C 63.015625 -18.863281 62.460938 -18.390625 61.578125 -17.640625 C 60.691406 -16.898438 59.644531 -16.015625 58.4375 -14.984375 C 57.238281 -13.960938 56.035156 -12.941406 54.828125 -11.921875 C 53.617188 -10.898438 52.570312 -10.015625 51.6875 -9.265625 C 50.800781 -8.515625 50.253906 -8.046875 50.046875 -7.859375 C 49.828125 -7.671875 49.273438 -7.203125 48.390625 -6.453125 C 47.503906 -5.710938 46.457031 -4.828125 45.25 -3.796875 C 44.039062 -2.773438 42.832031 -1.75 41.625 -0.71875 C 40.425781 0.300781 39.382812 1.179688 38.5 1.921875 C 37.613281 2.671875 37.066406 3.140625 36.859375 3.328125 C 31.046875 8.242188 27.148438 12.144531 25.171875 15.03125 C 23.191406 17.925781 22.988281 20.300781 24.5625 22.15625 C 26.6875 24.65625 30.703125 24.320312 36.609375 21.15625 C 42.515625 18 50.300781 12.320312 59.96875 4.125 C 62.519531 1.96875 65.128906 -0.296875 67.796875 -2.671875 C 70.472656 -5.054688 72.984375 -7.453125 75.328125 -9.859375 C 77.671875 -12.265625 79.644531 -14.566406 81.25 -16.765625 C 82.863281 -18.960938 83.941406 -20.972656 84.484375 -22.796875 C 85.035156 -24.617188 84.785156 -26.144531 83.734375 -27.375 Z M 83.734375 -27.375 "/></g></g></g><g fill="#ffffff" fill-opacity="1"><g transform="translate(589.419708, 267.491604)"><g><path d="M 40.328125 -15.78125 C 44.210938 -17.53125 48.265625 -18.910156 52.484375 -19.921875 C 56.703125 -20.941406 60.890625 -21.46875 65.046875 -21.5 C 69.203125 -21.539062 73.128906 -21.035156 76.828125 -19.984375 C 80.523438 -18.929688 83.84375 -17.210938 86.78125 -14.828125 C 89.71875 -12.453125 92.066406 -9.316406 93.828125 -5.421875 C 94.742188 -3.378906 95.359375 -1.3125 95.671875 0.78125 C 95.984375 2.882812 96.320312 5.039062 96.6875 7.25 C 97.050781 9.457031 97.765625 11.742188 98.828125 14.109375 C 99.660156 15.941406 100.582031 17.28125 101.59375 18.125 C 102.601562 18.96875 103.539062 19.65625 104.40625 20.1875 C 105.28125 20.71875 105.894531 21.378906 106.25 22.171875 C 106.71875 23.222656 106.394531 24.09375 105.28125 24.78125 C 104.175781 25.46875 102.648438 26.007812 100.703125 26.40625 C 98.765625 26.8125 96.765625 27.03125 94.703125 27.0625 C 93.253906 27.09375 91.476562 26.984375 89.375 26.734375 C 87.269531 26.484375 85.28125 25.890625 83.40625 24.953125 C 81.539062 24.023438 80.179688 22.613281 79.328125 20.71875 C 78.078125 17.9375 77.273438 15.3125 76.921875 12.84375 C 76.566406 10.375 76.453125 8.019531 76.578125 5.78125 C 76.710938 3.550781 76.878906 1.394531 77.078125 -0.6875 C 77.273438 -2.78125 77.296875 -4.832031 77.140625 -6.84375 C 76.992188 -8.851562 76.460938 -10.882812 75.546875 -12.9375 C 74.941406 -14.257812 74.097656 -15.179688 73.015625 -15.703125 C 71.941406 -16.222656 70.769531 -16.484375 69.5 -16.484375 C 68.226562 -16.484375 67.023438 -16.335938 65.890625 -16.046875 C 64.765625 -15.753906 63.828125 -15.441406 63.078125 -15.109375 C 62.722656 -14.953125 62.050781 -14.671875 61.0625 -14.265625 C 60.082031 -13.859375 59.054688 -13.394531 57.984375 -12.875 C 56.921875 -12.363281 56.0625 -11.816406 55.40625 -11.234375 C 54.75 -10.648438 54.535156 -10.097656 54.765625 -9.578125 C 55.117188 -8.785156 55.820312 -8.132812 56.875 -7.625 C 57.925781 -7.125 59.101562 -6.34375 60.40625 -5.28125 C 61.707031 -4.226562 62.878906 -2.546875 63.921875 -0.234375 C 64.796875 1.710938 65.316406 3.753906 65.484375 5.890625 C 65.660156 8.023438 65.71875 10.148438 65.65625 12.265625 C 65.59375 14.390625 65.601562 16.425781 65.6875 18.375 C 65.78125 20.320312 66.171875 22.0625 66.859375 23.59375 C 67.398438 24.800781 68.085938 25.625 68.921875 26.0625 C 69.753906 26.507812 70.515625 26.832031 71.203125 27.03125 C 71.898438 27.226562 72.34375 27.535156 72.53125 27.953125 C 72.8125 28.578125 72.59375 29.253906 71.875 29.984375 C 71.164062 30.722656 70.179688 31.375 68.921875 31.9375 C 67.609375 32.53125 66.078125 32.921875 64.328125 33.109375 C 62.578125 33.296875 60.769531 33.15625 58.90625 32.6875 C 57.050781 32.226562 55.304688 31.335938 53.671875 30.015625 C 52.046875 28.703125 50.6875 26.835938 49.59375 24.421875 C 48.550781 22.109375 48.09375 19.785156 48.21875 17.453125 C 48.34375 15.128906 48.757812 12.875 49.46875 10.6875 C 50.1875 8.5 50.941406 6.421875 51.734375 4.453125 C 52.535156 2.484375 53.140625 0.648438 53.546875 -1.046875 C 53.953125 -2.753906 53.859375 -4.265625 53.265625 -5.578125 C 52.878906 -6.421875 52.363281 -6.851562 51.71875 -6.875 C 51.082031 -6.90625 50.429688 -6.738281 49.765625 -6.375 C 49.109375 -6.019531 48.550781 -5.640625 48.09375 -5.234375 C 43.957031 -1.484375 40.660156 2.601562 38.203125 7.03125 C 35.742188 11.46875 34.242188 15.890625 33.703125 20.296875 C 33.160156 24.703125 33.703125 28.722656 35.328125 32.359375 C 36.585938 35.148438 38.015625 37.257812 39.609375 38.6875 C 41.203125 40.125 42.832031 41.144531 44.5 41.75 C 46.164062 42.363281 47.738281 42.765625 49.21875 42.953125 C 50.695312 43.140625 51.960938 43.359375 53.015625 43.609375 C 54.078125 43.859375 54.785156 44.378906 55.140625 45.171875 C 55.347656 45.640625 55.296875 46.195312 54.984375 46.84375 C 54.679688 47.488281 53.609375 48.226562 51.765625 49.0625 C 49.085938 50.269531 45.988281 50.96875 42.46875 51.15625 C 38.957031 51.351562 35.382812 50.925781 31.75 49.875 C 28.113281 48.820312 24.734375 47.035156 21.609375 44.515625 C 18.484375 42.003906 15.972656 38.644531 14.078125 34.4375 C 12.085938 30.019531 11.0625 25.5 11 20.875 C 10.945312 16.257812 11.945312 11.734375 14 7.296875 C 16.0625 2.867188 19.265625 -1.316406 23.609375 -5.265625 C 27.960938 -9.222656 33.535156 -12.726562 40.328125 -15.78125 Z M 40.328125 -15.78125 "/></g></g></g><g fill="#ffffff" fill-opacity="1"><g transform="translate(616.172604, 326.576489)"><g><path d="M 2.78125 27.484375 C 2.25 23.890625 2.285156 20.425781 2.890625 17.09375 C 3.503906 13.769531 4.539062 10.742188 6 8.015625 C 7.46875 5.296875 9.28125 3.054688 11.4375 1.296875 C 13.59375 -0.453125 15.953125 -1.515625 18.515625 -1.890625 C 19.546875 -2.046875 20.753906 -1.65625 22.140625 -0.71875 C 23.535156 0.207031 24.960938 1.460938 26.421875 3.046875 C 27.878906 4.640625 29.234375 6.316406 30.484375 8.078125 C 31.742188 9.847656 32.796875 11.515625 33.640625 13.078125 C 34.484375 14.648438 34.953125 15.898438 35.046875 16.828125 C 35.171875 18.128906 34.882812 19.296875 34.1875 20.328125 C 33.5 21.367188 32.3125 21.90625 30.625 21.9375 C 28.363281 21.96875 25.976562 22.082031 23.46875 22.28125 C 20.96875 22.476562 18.671875 23 16.578125 23.84375 C 14.484375 24.6875 12.878906 26.050781 11.765625 27.9375 C 10.648438 29.820312 10.335938 32.414062 10.828125 35.71875 C 11.160156 37.945312 11.960938 39.925781 13.234375 41.65625 C 14.515625 43.394531 16.128906 44.710938 18.078125 45.609375 C 20.023438 46.515625 22.082031 46.804688 24.25 46.484375 C 27.15625 46.054688 29.476562 44.941406 31.21875 43.140625 C 32.957031 41.335938 34.300781 39.125 35.25 36.5 C 36.207031 33.882812 36.898438 31.085938 37.328125 28.109375 C 38.015625 23.679688 38.800781 19.460938 39.6875 15.453125 C 40.570312 11.453125 41.820312 7.84375 43.4375 4.625 C 45.0625 1.414062 47.273438 -1.253906 50.078125 -3.390625 C 52.878906 -5.535156 56.53125 -6.941406 61.03125 -7.609375 C 64.625 -8.140625 68.09375 -7.941406 71.4375 -7.015625 C 74.789062 -6.085938 77.84375 -4.585938 80.59375 -2.515625 C 83.34375 -0.453125 85.628906 2.070312 87.453125 5.0625 C 89.273438 8.0625 90.453125 11.351562 90.984375 14.9375 C 91.316406 17.164062 91.347656 19.332031 91.078125 21.4375 C 90.804688 23.550781 90.539062 25.707031 90.28125 27.90625 C 90.03125 30.101562 90.101562 32.507812 90.5 35.125 C 90.789062 37.125 91.304688 38.664062 92.046875 39.75 C 92.796875 40.832031 93.515625 41.742188 94.203125 42.484375 C 94.898438 43.234375 95.316406 44.035156 95.453125 44.890625 C 95.597656 45.910156 95.117188 46.632812 94.015625 47.0625 C 92.910156 47.488281 91.4375 47.664062 89.59375 47.59375 C 87.75 47.519531 85.75 47.21875 83.59375 46.6875 C 81.445312 46.164062 79.378906 45.410156 77.390625 44.421875 C 75.410156 43.441406 73.734375 42.265625 72.359375 40.890625 C 70.992188 39.523438 70.179688 37.957031 69.921875 36.1875 C 69.453125 33.050781 69.53125 30.082031 70.15625 27.28125 C 70.789062 24.476562 71.609375 21.742188 72.609375 19.078125 C 73.617188 16.421875 74.445312 13.742188 75.09375 11.046875 C 75.738281 8.359375 75.851562 5.59375 75.4375 2.75 C 75.195312 1.15625 74.410156 -0.109375 73.078125 -1.046875 C 71.742188 -1.984375 70.25 -2.332031 68.59375 -2.09375 C 66.3125 -1.75 64.578125 -0.570312 63.390625 1.4375 C 62.203125 3.445312 61.394531 5.953125 60.96875 8.953125 C 60.550781 11.960938 60.363281 15.195312 60.40625 18.65625 C 60.457031 22.125 60.582031 25.507812 60.78125 28.8125 C 61.03125 33.675781 60.351562 38.078125 58.75 42.015625 C 57.15625 45.953125 54.78125 49.1875 51.625 51.71875 C 48.476562 54.257812 44.710938 55.859375 40.328125 56.515625 C 36.503906 57.085938 32.585938 57 28.578125 56.25 C 24.566406 55.507812 20.773438 54.019531 17.203125 51.78125 C 13.628906 49.539062 10.554688 46.425781 7.984375 42.4375 C 5.410156 38.445312 3.675781 33.460938 2.78125 27.484375 Z M 2.78125 27.484375 "/></g></g></g><g fill="#ffffff" fill-opacity="1"><g transform="translate(627.062706, 398.521737)"><g><path d="M -4.296875 37.40625 C -3.910156 32.519531 -2.613281 28.015625 -0.40625 23.890625 C 1.789062 19.765625 4.878906 16.234375 8.859375 13.296875 C 12.847656 10.367188 17.734375 8.210938 23.515625 6.828125 C 29.296875 5.453125 35.941406 5.0625 43.453125 5.65625 C 47.765625 6 52.035156 6.75 56.265625 7.90625 C 60.503906 9.0625 64.476562 10.632812 68.1875 12.625 C 71.894531 14.625 75.128906 16.992188 77.890625 19.734375 C 80.660156 22.472656 82.765625 25.609375 84.203125 29.140625 C 85.648438 32.671875 86.207031 36.59375 85.875 40.90625 C 85.6875 43.164062 85.21875 45.304688 84.46875 47.328125 C 83.726562 49.347656 82.976562 51.425781 82.21875 53.5625 C 81.46875 55.695312 80.988281 58.070312 80.78125 60.6875 C 80.625 62.71875 80.785156 64.351562 81.265625 65.59375 C 81.753906 66.84375 82.253906 67.910156 82.765625 68.796875 C 83.285156 69.679688 83.507812 70.5625 83.4375 71.4375 C 83.34375 72.601562 82.632812 73.21875 81.3125 73.28125 C 79.988281 73.351562 78.367188 73.09375 76.453125 72.5 C 74.546875 71.914062 72.664062 71.140625 70.8125 70.171875 C 69.90625 69.691406 68.894531 69.085938 67.78125 68.359375 C 66.675781 67.628906 65.578125 66.78125 64.484375 65.8125 C 63.328125 64.78125 62.117188 63.539062 60.859375 62.09375 C 59.597656 60.65625 58.265625 59.25 56.859375 57.875 C 55.453125 56.507812 53.992188 55.335938 52.484375 54.359375 C 50.972656 53.390625 49.4375 52.84375 47.875 52.71875 C 46.414062 52.59375 45.113281 52.957031 43.96875 53.8125 C 42.820312 54.664062 42.191406 55.84375 42.078125 57.34375 C 42.003906 58.28125 42.101562 58.84375 42.375 59.03125 C 42.644531 59.226562 42.757812 59.5625 42.71875 60.03125 C 42.664062 60.726562 42.046875 61.175781 40.859375 61.375 C 39.679688 61.582031 38.65625 61.648438 37.78125 61.578125 C 35.625 61.410156 33.632812 60.609375 31.8125 59.171875 C 30 57.734375 28.582031 55.90625 27.5625 53.6875 C 26.539062 51.46875 26.125 49.140625 26.3125 46.703125 C 26.5 44.378906 27.234375 42.269531 28.515625 40.375 C 29.804688 38.488281 31.441406 37.023438 33.421875 35.984375 C 35.410156 34.941406 37.570312 34.515625 39.90625 34.703125 C 42.53125 34.910156 44.75 35.695312 46.5625 37.0625 C 48.382812 38.4375 49.925781 40.066406 51.1875 41.953125 C 52.445312 43.847656 53.5 45.734375 54.34375 47.609375 C 55.1875 49.492188 55.953125 51.078125 56.640625 52.359375 C 57.328125 53.648438 58.015625 54.320312 58.703125 54.375 C 59.816406 54.46875 60.585938 53.707031 61.015625 52.09375 C 61.722656 49.15625 62.71875 46.566406 64 44.328125 C 65.28125 42.097656 66.597656 40.007812 67.953125 38.0625 C 69.304688 36.125 70.488281 34.140625 71.5 32.109375 C 72.519531 30.085938 73.128906 27.828125 73.328125 25.328125 C 73.441406 23.878906 73.140625 22.65625 72.421875 21.65625 C 71.710938 20.65625 70.796875 19.847656 69.671875 19.234375 C 68.554688 18.617188 67.425781 18.164062 66.28125 17.875 C 65.132812 17.582031 64.15625 17.40625 63.34375 17.34375 C 59.726562 17.050781 55.832031 17.191406 51.65625 17.765625 C 47.488281 18.335938 43.359375 19.335938 39.265625 20.765625 C 35.171875 22.203125 31.390625 24.082031 27.921875 26.40625 C 24.460938 28.738281 21.625 31.523438 19.40625 34.765625 C 17.1875 38.015625 15.910156 41.734375 15.578125 45.921875 C 15.328125 49.003906 15.5625 51.570312 16.28125 53.625 C 17 55.675781 17.945312 57.375 19.125 58.71875 C 20.300781 60.070312 21.5 61.191406 22.71875 62.078125 C 23.9375 62.972656 24.957031 63.785156 25.78125 64.515625 C 26.601562 65.253906 26.976562 66.0625 26.90625 66.9375 C 26.863281 67.46875 26.546875 67.941406 25.953125 68.359375 C 25.359375 68.785156 24.039062 68.914062 22 68.75 C 19.21875 68.53125 16.21875 67.644531 13 66.09375 C 9.78125 64.550781 6.800781 62.425781 4.0625 59.71875 C 1.320312 57.019531 -0.847656 53.789062 -2.453125 50.03125 C -4.054688 46.269531 -4.671875 42.0625 -4.296875 37.40625 Z M -4.296875 37.40625 "/></g></g></g><g fill="#ffffff" fill-opacity="1"><g transform="translate(623.040214, 458.710088)"><g><path d="M -15.4375 44.953125 L -0.28125 0.828125 C 0.4375 2.304688 1.484375 3.507812 2.859375 4.4375 C 4.234375 5.375 6.109375 6.253906 8.484375 7.078125 L 71.734375 28.78125 C 74.109375 29.59375 76.125 30.050781 77.78125 30.15625 C 79.445312 30.269531 81.023438 29.96875 82.515625 29.25 L 73.78125 54.671875 C 73.007812 56.929688 72.019531 58.550781 70.8125 59.53125 C 69.613281 60.507812 68.363281 61.046875 67.0625 61.140625 C 65.769531 61.242188 64.570312 61.109375 63.46875 60.734375 C 61.425781 60.023438 59.539062 58.726562 57.8125 56.84375 C 56.082031 54.957031 54.410156 52.71875 52.796875 50.125 C 51.191406 47.539062 49.519531 44.8125 47.78125 41.9375 C 46.050781 39.0625 44.175781 36.257812 42.15625 33.53125 C 40.132812 30.800781 37.875 28.359375 35.375 26.203125 C 32.875 24.054688 30.023438 22.429688 26.828125 21.328125 C 25.003906 20.703125 22.84375 20.285156 20.34375 20.078125 C 17.851562 19.878906 15.226562 19.9375 12.46875 20.25 C 9.71875 20.5625 7.039062 21.226562 4.4375 22.25 C 1.832031 23.28125 -0.46875 24.726562 -2.46875 26.59375 C -4.46875 28.457031 -5.945312 30.800781 -6.90625 33.625 C -7.507812 35.382812 -7.804688 37.191406 -7.796875 39.046875 C -7.796875 40.910156 -7.398438 42.578125 -6.609375 44.046875 C -5.816406 45.515625 -4.566406 46.546875 -2.859375 47.140625 C -0.648438 47.898438 1.398438 48.078125 3.296875 47.671875 C 5.191406 47.273438 7.035156 46.613281 8.828125 45.6875 C 10.628906 44.769531 12.503906 43.859375 14.453125 42.953125 C 16.398438 42.046875 18.515625 41.457031 20.796875 41.1875 C 23.085938 40.925781 25.664062 41.289062 28.53125 42.28125 C 30.625 43 32.40625 44.179688 33.875 45.828125 C 35.34375 47.472656 36.347656 49.34375 36.890625 51.4375 C 37.441406 53.53125 37.351562 55.628906 36.625 57.734375 C 36.175781 59.054688 35.34375 60.679688 34.125 62.609375 C 32.90625 64.535156 31.519531 66.40625 29.96875 68.21875 C 28.414062 70.03125 26.84375 71.460938 25.25 72.515625 C 23.664062 73.578125 22.265625 73.898438 21.046875 73.484375 C 19.453125 72.941406 18.332031 72.066406 17.6875 70.859375 C 17.050781 69.648438 16.679688 68.253906 16.578125 66.671875 C 16.472656 65.097656 16.445312 63.472656 16.5 61.796875 C 16.550781 60.117188 16.550781 58.492188 16.5 56.921875 C 16.457031 55.359375 16.140625 53.984375 15.546875 52.796875 C 14.960938 51.617188 13.929688 50.773438 12.453125 50.265625 C 11.234375 49.847656 10.023438 49.941406 8.828125 50.546875 C 7.640625 51.160156 6.425781 52.039062 5.1875 53.1875 C 3.957031 54.34375 2.671875 55.582031 1.328125 56.90625 C -0.015625 58.238281 -1.453125 59.425781 -2.984375 60.46875 C -4.515625 61.519531 -6.164062 62.25 -7.9375 62.65625 C -9.71875 63.0625 -11.660156 62.90625 -13.765625 62.1875 C -15.640625 61.539062 -16.898438 60.597656 -17.546875 59.359375 C -18.203125 58.117188 -18.4375 56.695312 -18.25 55.09375 C -18.070312 53.488281 -17.695312 51.8125 -17.125 50.0625 C -16.5625 48.3125 -16 46.609375 -15.4375 44.953125 Z M -15.4375 44.953125 "/></g></g></g><g fill="#ffffff" fill-opacity="1"><g transform="translate(603.379594, 513.143454)"><g><path d="M -0.421875 0.765625 C 0.0234375 2.359375 0.835938 3.734375 2.015625 4.890625 C 3.203125 6.054688 4.894531 7.253906 7.09375 8.484375 L 65.4375 41.15625 C 67.632812 42.375 69.535156 43.1875 71.140625 43.59375 C 72.753906 44 74.359375 43.972656 75.953125 43.515625 L 61.625 69.109375 C 61.175781 67.523438 60.359375 66.148438 59.171875 64.984375 C 57.992188 63.816406 56.304688 62.625 54.109375 61.40625 L -4.234375 28.734375 C -6.429688 27.503906 -8.332031 26.6875 -9.9375 26.28125 C -11.550781 25.882812 -13.15625 25.910156 -14.75 26.359375 Z M -0.421875 0.765625 "/></g></g></g><g fill="#ffffff" fill-opacity="1"><g transform="translate(593.302308, 535.964017)"><g><path d="M -25.203125 27.984375 C -22.046875 24.222656 -18.375 21.300781 -14.1875 19.21875 C -10.007812 17.132812 -5.445312 16.054688 -0.5 15.984375 C 4.445312 15.910156 9.675781 16.984375 15.1875 19.203125 C 20.695312 21.429688 26.335938 24.96875 32.109375 29.8125 C 35.421875 32.59375 38.46875 35.679688 41.25 39.078125 C 44.03125 42.484375 46.347656 46.070312 48.203125 49.84375 C 50.066406 53.613281 51.332031 57.421875 52 61.265625 C 52.664062 65.109375 52.5625 68.882812 51.6875 72.59375 C 50.8125 76.3125 48.984375 79.828125 46.203125 83.140625 C 44.742188 84.878906 43.125 86.351562 41.34375 87.5625 C 39.5625 88.78125 37.742188 90.035156 35.890625 91.328125 C 34.035156 92.628906 32.265625 94.285156 30.578125 96.296875 C 29.265625 97.859375 28.445312 99.285156 28.125 100.578125 C 27.800781 101.878906 27.59375 103.039062 27.5 104.0625 C 27.40625 105.082031 27.078125 105.925781 26.515625 106.59375 C 25.765625 107.488281 24.828125 107.582031 23.703125 106.875 C 22.585938 106.164062 21.421875 105.015625 20.203125 103.421875 C 18.984375 101.835938 17.90625 100.109375 16.96875 98.234375 C 16.507812 97.316406 16.035156 96.238281 15.546875 95 C 15.066406 93.757812 14.664062 92.429688 14.34375 91.015625 C 14 89.503906 13.734375 87.796875 13.546875 85.890625 C 13.359375 83.984375 13.085938 82.0625 12.734375 80.125 C 12.378906 78.1875 11.867188 76.382812 11.203125 74.71875 C 10.546875 73.050781 9.613281 71.710938 8.40625 70.703125 C 7.289062 69.765625 6.015625 69.304688 4.578125 69.328125 C 3.148438 69.359375 1.953125 69.953125 0.984375 71.109375 C 0.378906 71.828125 0.132812 72.347656 0.25 72.671875 C 0.363281 72.992188 0.269531 73.332031 -0.03125 73.6875 C -0.488281 74.226562 -1.253906 74.234375 -2.328125 73.703125 C -3.410156 73.179688 -4.289062 72.640625 -4.96875 72.078125 C -6.625 70.679688 -7.769531 68.875 -8.40625 66.65625 C -9.050781 64.4375 -9.148438 62.125 -8.703125 59.71875 C -8.253906 57.320312 -7.242188 55.1875 -5.671875 53.3125 C -4.171875 51.519531 -2.347656 50.226562 -0.203125 49.4375 C 1.941406 48.644531 4.125 48.398438 6.34375 48.703125 C 8.570312 49.003906 10.582031 49.910156 12.375 51.421875 C 14.382812 53.109375 15.734375 55.035156 16.421875 57.203125 C 17.109375 59.378906 17.414062 61.597656 17.34375 63.859375 C 17.269531 66.128906 17.03125 68.273438 16.625 70.296875 C 16.226562 72.328125 15.9375 74.066406 15.75 75.515625 C 15.5625 76.960938 15.734375 77.910156 16.265625 78.359375 C 17.117188 79.078125 18.1875 78.898438 19.46875 77.828125 C 21.738281 75.847656 24.046875 74.316406 26.390625 73.234375 C 28.734375 72.160156 31.019531 71.226562 33.25 70.4375 C 35.488281 69.644531 37.601562 68.71875 39.59375 67.65625 C 41.59375 66.59375 43.398438 65.101562 45.015625 63.1875 C 45.953125 62.070312 46.421875 60.898438 46.421875 59.671875 C 46.421875 58.441406 46.140625 57.25 45.578125 56.09375 C 45.023438 54.9375 44.367188 53.90625 43.609375 53 C 42.847656 52.09375 42.15625 51.378906 41.53125 50.859375 C 38.757812 48.523438 35.503906 46.382812 31.765625 44.4375 C 28.035156 42.488281 24.085938 40.910156 19.921875 39.703125 C 15.765625 38.492188 11.597656 37.832031 7.421875 37.71875 C 3.242188 37.601562 -0.6875 38.222656 -4.375 39.578125 C -8.0625 40.941406 -11.253906 43.226562 -13.953125 46.4375 C -15.941406 48.8125 -17.238281 51.039062 -17.84375 53.125 C -18.457031 55.207031 -18.675781 57.140625 -18.5 58.921875 C -18.320312 60.703125 -17.992188 62.304688 -17.515625 63.734375 C -17.035156 65.171875 -16.675781 66.425781 -16.4375 67.5 C -16.195312 68.582031 -16.359375 69.457031 -16.921875 70.125 C -17.265625 70.53125 -17.796875 70.726562 -18.515625 70.71875 C -19.242188 70.71875 -20.390625 70.0625 -21.953125 68.75 C -24.097656 66.957031 -26.03125 64.5 -27.75 61.375 C -29.476562 58.257812 -30.675781 54.800781 -31.34375 51 C -32.007812 47.207031 -31.898438 43.316406 -31.015625 39.328125 C -30.140625 35.335938 -28.203125 31.554688 -25.203125 27.984375 Z M -25.203125 27.984375 "/></g></g></g><g fill="#ffffff" fill-opacity="1"><g transform="translate(555.576682, 582.739187)"><g><path d="M -19.71875 13.8125 L -0.71875 0.5 C -1.007812 2.125 -0.867188 3.71875 -0.296875 5.28125 C 0.265625 6.851562 1.265625 8.664062 2.703125 10.71875 L 41.0625 65.515625 C 42.5 67.566406 43.851562 69.117188 45.125 70.171875 C 46.40625 71.234375 47.859375 71.910156 49.484375 72.203125 L 29.5625 86.15625 C 27.59375 87.53125 25.835938 88.257812 24.296875 88.34375 C 22.753906 88.425781 21.421875 88.125 20.296875 87.4375 C 19.179688 86.757812 18.289062 85.941406 17.625 84.984375 C 16.019531 82.703125 15.070312 80.3125 14.78125 77.8125 C 14.5 75.3125 14.628906 72.796875 15.171875 70.265625 C 15.722656 67.742188 16.453125 65.273438 17.359375 62.859375 C 18.265625 60.441406 19.113281 58.148438 19.90625 55.984375 C 20.707031 53.816406 21.210938 51.84375 21.421875 50.0625 C 21.640625 48.28125 21.3125 46.769531 20.4375 45.53125 C 19.394531 44.039062 18.109375 43.832031 16.578125 44.90625 C 15.578125 45.601562 14.535156 46.90625 13.453125 48.8125 C 12.367188 50.71875 11.300781 53.03125 10.25 55.75 C 9.195312 58.476562 8.300781 61.398438 7.5625 64.515625 C 6.820312 67.640625 6.347656 70.785156 6.140625 73.953125 C 5.941406 77.128906 6.078125 80.117188 6.546875 82.921875 C 7.023438 85.734375 7.984375 88.160156 9.421875 90.203125 C 10.523438 91.785156 11.546875 92.921875 12.484375 93.609375 C 13.429688 94.296875 14.648438 94.941406 16.140625 95.546875 L 1.015625 106.140625 C -0.367188 107.109375 -2.082031 107.382812 -4.125 106.96875 C -6.164062 106.550781 -7.875 105.359375 -9.25 103.390625 C -11.289062 100.472656 -12.421875 97.429688 -12.640625 94.265625 C -12.859375 91.109375 -12.460938 87.929688 -11.453125 84.734375 C -10.453125 81.535156 -9.078125 78.382812 -7.328125 75.28125 C -5.585938 72.175781 -3.75 69.234375 -1.8125 66.453125 C 0.113281 63.671875 1.867188 61.097656 3.453125 58.734375 C 5.046875 56.378906 6.21875 54.3125 6.96875 52.53125 C 7.726562 50.757812 7.769531 49.394531 7.09375 48.4375 C 6.5625 47.675781 5.804688 47.566406 4.828125 48.109375 C 3.859375 48.660156 2.941406 49.273438 2.078125 49.953125 C 0.734375 51.097656 -0.53125 52.492188 -1.71875 54.140625 C -2.914062 55.796875 -4.164062 57.472656 -5.46875 59.171875 C -6.78125 60.867188 -8.304688 62.300781 -10.046875 63.46875 C -11.722656 64.632812 -13.4375 65.085938 -15.1875 64.828125 C -16.945312 64.566406 -18.71875 63.898438 -20.5 62.828125 C -22.289062 61.753906 -24.023438 60.519531 -25.703125 59.125 C -27.390625 57.738281 -28.972656 56.5 -30.453125 55.40625 C -37.203125 50.445312 -42.648438 46.625 -46.796875 43.9375 C -50.953125 41.257812 -54.359375 39.921875 -57.015625 39.921875 L -41.578125 29.109375 C -39.484375 27.640625 -37.664062 26.703125 -36.125 26.296875 C -34.59375 25.898438 -33.160156 25.96875 -31.828125 26.5 C -30.492188 27.03125 -29.035156 27.921875 -27.453125 29.171875 C -25.359375 30.828125 -22.96875 32.734375 -20.28125 34.890625 C -17.601562 37.046875 -14.816406 38.914062 -11.921875 40.5 C -9.785156 41.71875 -7.488281 42.710938 -5.03125 43.484375 C -2.570312 44.253906 -0.160156 44.597656 2.203125 44.515625 C 4.566406 44.429688 6.664062 43.707031 8.5 42.34375 C 10.113281 41.207031 11.203125 39.992188 11.765625 38.703125 C 12.335938 37.421875 12.539062 36.234375 12.375 35.140625 C 12.207031 34.054688 11.875 33.15625 11.375 32.4375 C 10.269531 30.851562 8.953125 29.773438 7.421875 29.203125 C 5.890625 28.640625 4.203125 28.34375 2.359375 28.3125 C 0.523438 28.289062 -1.359375 28.316406 -3.296875 28.390625 C -5.242188 28.460938 -7.203125 28.390625 -9.171875 28.171875 C -11.140625 27.953125 -13.023438 27.367188 -14.828125 26.421875 C -16.628906 25.472656 -18.300781 23.898438 -19.84375 21.703125 C -20.71875 20.453125 -21.140625 18.984375 -21.109375 17.296875 C -21.085938 15.609375 -20.625 14.445312 -19.71875 13.8125 Z M -19.71875 13.8125 "/></g></g></g><g fill="#ffffff" fill-opacity="1"><g transform="translate(503.288457, 617.85576)"><g/></g></g><g fill="#ffffff" fill-opacity="1"><g transform="translate(482.194286, 630.157801)"><g><path d="M 8.546875 52.921875 C 9.117188 52.796875 9.617188 52.890625 10.046875 53.203125 C 10.484375 53.515625 10.765625 53.953125 10.890625 54.515625 L 18.140625 85.640625 L -48.109375 101.0625 L -55.359375 69.9375 C -55.484375 69.375 -55.429688 68.859375 -55.203125 68.390625 C -54.984375 67.921875 -54.566406 67.613281 -53.953125 67.46875 C -53.265625 67.3125 -52.316406 67.828125 -51.109375 69.015625 C -49.910156 70.203125 -48.554688 71.773438 -47.046875 73.734375 C -45.546875 75.691406 -43.984375 77.78125 -42.359375 80 C -40.734375 82.226562 -39.140625 84.3125 -37.578125 86.25 C -36.015625 88.195312 -34.570312 89.75 -33.25 90.90625 C -31.9375 92.070312 -30.828125 92.546875 -29.921875 92.328125 C -28.671875 92.035156 -28.050781 91.273438 -28.0625 90.046875 C -28.082031 88.828125 -28.242188 87.566406 -28.546875 86.265625 L -43.78125 20.796875 C -44.351562 18.347656 -45.035156 16.390625 -45.828125 14.921875 C -46.617188 13.460938 -47.710938 12.296875 -49.109375 11.421875 L -20.546875 4.78125 C -21.421875 6.175781 -21.890625 7.703125 -21.953125 9.359375 C -22.015625 11.023438 -21.757812 13.082031 -21.1875 15.53125 L -5.953125 81 C -5.648438 82.300781 -5.234375 83.503906 -4.703125 84.609375 C -4.179688 85.722656 -3.289062 86.132812 -2.03125 85.84375 C -1.132812 85.632812 -0.351562 84.71875 0.3125 83.09375 C 0.988281 81.46875 1.597656 79.4375 2.140625 77 C 2.679688 74.570312 3.191406 72 3.671875 69.28125 C 4.148438 66.570312 4.628906 64.003906 5.109375 61.578125 C 5.597656 59.160156 6.109375 57.15625 6.640625 55.5625 C 7.171875 53.976562 7.804688 53.097656 8.546875 52.921875 Z M 8.546875 52.921875 "/></g></g></g><g fill="#ffffff" fill-opacity="1"><g transform="translate(421.401144, 645.675647)"><g><path d="M -4.1875 43.625 C -4.488281 50.382812 -5.582031 56.476562 -7.46875 61.90625 C -9.363281 67.34375 -11.914062 71.988281 -15.125 75.84375 C -18.332031 79.695312 -22.097656 82.59375 -26.421875 84.53125 C -30.742188 86.46875 -35.5 87.316406 -40.6875 87.078125 C -45.8125 86.847656 -50.441406 85.570312 -54.578125 83.25 C -58.710938 80.925781 -62.203125 77.695312 -65.046875 73.5625 C -67.898438 69.4375 -70.015625 64.582031 -71.390625 59 C -72.765625 53.414062 -73.300781 47.242188 -73 40.484375 C -72.6875 33.722656 -71.585938 27.625 -69.703125 22.1875 C -67.828125 16.75 -65.28125 12.101562 -62.0625 8.25 C -58.851562 4.40625 -55.082031 1.515625 -50.75 -0.421875 C -46.425781 -2.359375 -41.703125 -3.210938 -36.578125 -2.984375 C -31.390625 -2.742188 -26.726562 -1.460938 -22.59375 0.859375 C -18.46875 3.179688 -14.984375 6.40625 -12.140625 10.53125 C -9.296875 14.65625 -7.179688 19.507812 -5.796875 25.09375 C -4.410156 30.6875 -3.875 36.863281 -4.1875 43.625 Z M -33.328125 81.453125 C -31.285156 81.546875 -29.628906 80.523438 -28.359375 78.390625 C -27.097656 76.265625 -26.179688 73.34375 -25.609375 69.625 C -25.035156 65.914062 -24.769531 61.738281 -24.8125 57.09375 C -24.851562 52.445312 -25.171875 47.628906 -25.765625 42.640625 C -26.359375 37.648438 -27.175781 32.804688 -28.21875 28.109375 C -29.257812 23.410156 -30.5 19.160156 -31.9375 15.359375 C -33.375 11.554688 -34.957031 8.519531 -36.6875 6.25 C -38.425781 3.988281 -40.257812 2.8125 -42.1875 2.71875 C -44.632812 2.613281 -46.632812 3.617188 -48.1875 5.734375 C -49.75 7.847656 -50.90625 10.753906 -51.65625 14.453125 C -52.40625 18.160156 -52.800781 22.335938 -52.84375 26.984375 C -52.882812 31.628906 -52.609375 36.445312 -52.015625 41.4375 C -51.421875 46.4375 -50.546875 51.285156 -49.390625 55.984375 C -48.234375 60.679688 -46.847656 64.929688 -45.234375 68.734375 C -43.628906 72.546875 -41.828125 75.585938 -39.828125 77.859375 C -37.835938 80.140625 -35.671875 81.335938 -33.328125 81.453125 Z M -33.328125 81.453125 "/></g></g></g><g fill="#ffffff" fill-opacity="1"><g transform="translate(355.119372, 641.22647)"><g/></g></g><g fill="#ffffff" fill-opacity="1"><g transform="translate(330.840846, 637.671465)"><g><path d="M -20.1875 38.890625 C -21.988281 42.816406 -24.160156 46.570312 -26.703125 50.15625 C -29.242188 53.738281 -32.082031 56.925781 -35.21875 59.71875 C -38.363281 62.519531 -41.695312 64.753906 -45.21875 66.421875 C -48.738281 68.085938 -52.410156 68.988281 -56.234375 69.125 C -60.054688 69.269531 -63.929688 68.445312 -67.859375 66.65625 C -69.921875 65.707031 -71.769531 64.535156 -73.40625 63.140625 C -75.050781 61.753906 -76.742188 60.34375 -78.484375 58.90625 C -80.234375 57.46875 -82.300781 56.203125 -84.6875 55.109375 C -86.539062 54.253906 -88.132812 53.84375 -89.46875 53.875 C -90.800781 53.90625 -91.972656 54.007812 -92.984375 54.1875 C -94.003906 54.363281 -94.910156 54.269531 -95.703125 53.90625 C -96.765625 53.425781 -97.101562 52.550781 -96.71875 51.28125 C -96.332031 50.007812 -95.535156 48.578125 -94.328125 46.984375 C -93.117188 45.390625 -91.738281 43.890625 -90.1875 42.484375 C -89.09375 41.503906 -87.660156 40.410156 -85.890625 39.203125 C -84.117188 37.992188 -82.207031 37.113281 -80.15625 36.5625 C -78.113281 36.019531 -76.140625 36.1875 -74.234375 37.0625 C -71.421875 38.351562 -69.054688 39.820312 -67.140625 41.46875 C -65.234375 43.113281 -63.582031 44.832031 -62.1875 46.625 C -60.800781 48.414062 -59.488281 50.171875 -58.25 51.890625 C -57.019531 53.609375 -55.671875 55.1875 -54.203125 56.625 C -52.742188 58.070312 -50.984375 59.265625 -48.921875 60.203125 C -47.597656 60.816406 -46.34375 60.957031 -45.15625 60.625 C -43.976562 60.300781 -42.90625 59.71875 -41.9375 58.875 C -40.96875 58.03125 -40.148438 57.117188 -39.484375 56.140625 C -38.816406 55.171875 -38.316406 54.316406 -37.984375 53.578125 C -37.804688 53.191406 -37.476562 52.515625 -37 51.546875 C -36.53125 50.578125 -36.0625 49.546875 -35.59375 48.453125 C -35.125 47.359375 -34.832031 46.367188 -34.71875 45.484375 C -34.601562 44.609375 -34.8125 44.046875 -35.34375 43.796875 C -36.144531 43.429688 -37.113281 43.40625 -38.25 43.71875 C -39.382812 44.03125 -40.796875 44.210938 -42.484375 44.265625 C -44.179688 44.328125 -46.195312 43.828125 -48.53125 42.765625 C -50.488281 41.859375 -52.25 40.648438 -53.8125 39.140625 C -55.375 37.628906 -56.832031 36.046875 -58.1875 34.390625 C -59.539062 32.742188 -60.898438 31.207031 -62.265625 29.78125 C -63.640625 28.363281 -65.097656 27.300781 -66.640625 26.59375 C -67.867188 26.03125 -68.945312 25.859375 -69.875 26.078125 C -70.8125 26.296875 -71.601562 26.554688 -72.25 26.859375 C -72.90625 27.160156 -73.445312 27.21875 -73.875 27.03125 C -74.507812 26.738281 -74.800781 26.078125 -74.75 25.046875 C -74.695312 24.015625 -74.378906 22.859375 -73.796875 21.578125 C -73.191406 20.253906 -72.28125 18.9375 -71.0625 17.625 C -69.851562 16.320312 -68.390625 15.226562 -66.671875 14.34375 C -64.960938 13.46875 -63.039062 12.984375 -60.90625 12.890625 C -58.78125 12.804688 -56.503906 13.320312 -54.078125 14.4375 C -51.734375 15.507812 -49.832031 16.972656 -48.375 18.828125 C -46.914062 20.679688 -45.726562 22.679688 -44.8125 24.828125 C -43.90625 26.984375 -43.09375 29.070312 -42.375 31.09375 C -41.664062 33.125 -40.898438 34.921875 -40.078125 36.484375 C -39.253906 38.046875 -38.175781 39.128906 -36.84375 39.734375 C -36 40.117188 -35.320312 40.109375 -34.8125 39.703125 C -34.3125 39.296875 -33.925781 38.734375 -33.65625 38.015625 C -33.394531 37.304688 -33.222656 36.648438 -33.140625 36.046875 C -32.503906 30.441406 -32.722656 25.128906 -33.796875 20.109375 C -34.867188 15.085938 -36.671875 10.710938 -39.203125 6.984375 C -41.734375 3.265625 -44.828125 0.570312 -48.484375 -1.09375 C -51.296875 -2.382812 -53.785156 -3.039062 -55.953125 -3.0625 C -58.117188 -3.09375 -60.039062 -2.785156 -61.71875 -2.140625 C -63.394531 -1.503906 -64.851562 -0.765625 -66.09375 0.078125 C -67.34375 0.921875 -68.457031 1.597656 -69.4375 2.109375 C -70.414062 2.628906 -71.300781 2.707031 -72.09375 2.34375 C -72.582031 2.125 -72.921875 1.660156 -73.109375 0.953125 C -73.296875 0.253906 -72.960938 -1.019531 -72.109375 -2.875 C -70.878906 -5.570312 -68.988281 -8.164062 -66.4375 -10.65625 C -63.894531 -13.15625 -60.890625 -15.210938 -57.421875 -16.828125 C -53.953125 -18.453125 -50.1875 -19.347656 -46.125 -19.515625 C -42.070312 -19.679688 -37.925781 -18.789062 -33.6875 -16.84375 C -29.21875 -14.800781 -25.421875 -12.039062 -22.296875 -8.5625 C -19.179688 -5.09375 -16.925781 -0.984375 -15.53125 3.765625 C -14.144531 8.515625 -13.789062 13.84375 -14.46875 19.75 C -15.15625 25.664062 -17.0625 32.046875 -20.1875 38.890625 Z M -20.1875 38.890625 "/></g></g></g><g fill="#ffffff" fill-opacity="1"><g transform="translate(275.727688, 614.030742)"><g><path d="M -0.671875 -0.5625 C -2.316406 -0.414062 -3.816406 0.128906 -5.171875 1.078125 C -6.535156 2.023438 -8.023438 3.460938 -9.640625 5.390625 L -52.546875 56.6875 C -54.148438 58.613281 -55.300781 60.332031 -56 61.84375 C -56.695312 63.351562 -56.972656 64.929688 -56.828125 66.578125 L -76.828125 49.84375 C -77.992188 48.875 -78.828125 47.820312 -79.328125 46.6875 C -79.828125 45.550781 -79.90625 43.960938 -79.5625 41.921875 C -79.226562 39.878906 -78.453125 37.101562 -77.234375 33.59375 C -76.015625 30.09375 -74.269531 25.445312 -72 19.65625 L -62.609375 -4.421875 C -61.691406 -6.773438 -60.773438 -9.113281 -59.859375 -11.4375 C -58.953125 -13.757812 -58.171875 -15.921875 -57.515625 -17.921875 C -56.867188 -19.929688 -56.484375 -21.644531 -56.359375 -23.0625 C -56.242188 -24.476562 -56.472656 -25.425781 -57.046875 -25.90625 C -57.804688 -26.550781 -58.679688 -26.625 -59.671875 -26.125 C -60.671875 -25.625 -61.703125 -24.847656 -62.765625 -23.796875 C -63.835938 -22.742188 -64.800781 -21.707031 -65.65625 -20.6875 C -69.25 -16.394531 -71.972656 -12.09375 -73.828125 -7.78125 C -75.679688 -3.46875 -77.03125 0.707031 -77.875 4.75 C -78.71875 8.800781 -79.34375 12.617188 -79.75 16.203125 C -80.15625 19.785156 -80.691406 23.023438 -81.359375 25.921875 C -82.035156 28.816406 -83.179688 31.226562 -84.796875 33.15625 C -86.515625 35.21875 -88.515625 36.09375 -90.796875 35.78125 C -93.078125 35.46875 -95.207031 34.484375 -97.1875 32.828125 L -111.21875 21.09375 C -109.570312 20.945312 -108.066406 20.398438 -106.703125 19.453125 C -105.335938 18.503906 -103.851562 17.066406 -102.25 15.140625 L -59.34375 -36.15625 C -57.726562 -38.082031 -56.570312 -39.800781 -55.875 -41.3125 C -55.1875 -42.820312 -54.914062 -44.398438 -55.0625 -46.046875 L -37.46875 -31.328125 C -35.539062 -29.722656 -34.285156 -27.859375 -33.703125 -25.734375 C -33.128906 -23.609375 -33.050781 -21.316406 -33.46875 -18.859375 C -33.882812 -16.410156 -34.578125 -13.820312 -35.546875 -11.09375 C -36.523438 -8.375 -37.597656 -5.554688 -38.765625 -2.640625 C -39.441406 -0.921875 -40.257812 1.191406 -41.21875 3.703125 C -42.175781 6.222656 -43.171875 8.851562 -44.203125 11.59375 C -45.242188 14.332031 -46.207031 16.890625 -47.09375 19.265625 C -47.988281 21.640625 -48.71875 23.535156 -49.28125 24.953125 C -50.1875 27.328125 -51.097656 29.671875 -52.015625 31.984375 C -52.929688 34.304688 -53.710938 36.46875 -54.359375 38.46875 C -55.015625 40.46875 -55.410156 42.164062 -55.546875 43.5625 C -55.691406 44.957031 -55.445312 45.921875 -54.8125 46.453125 C -54.101562 47.046875 -53.242188 47.101562 -52.234375 46.625 C -51.222656 46.144531 -50.179688 45.378906 -49.109375 44.328125 C -48.046875 43.285156 -47.082031 42.25 -46.21875 41.21875 C -42.632812 36.925781 -39.914062 32.625 -38.0625 28.3125 C -36.207031 24 -34.867188 19.804688 -34.046875 15.734375 C -33.234375 11.671875 -32.609375 7.859375 -32.171875 4.296875 C -31.742188 0.734375 -31.191406 -2.492188 -30.515625 -5.390625 C -29.847656 -8.285156 -28.707031 -10.695312 -27.09375 -12.625 C -25.375 -14.6875 -23.367188 -15.554688 -21.078125 -15.234375 C -18.796875 -14.921875 -16.671875 -13.941406 -14.703125 -12.296875 Z M -0.671875 -0.5625 "/></g></g></g><g fill="#ffffff" fill-opacity="1"><g transform="translate(226.009076, 573.922454)"><g><path d="M -46.1875 27.21875 C -45.851562 27.695312 -45.753906 28.195312 -45.890625 28.71875 C -46.023438 29.238281 -46.332031 29.664062 -46.8125 30 L -73.171875 48.078125 L -111.65625 -8.015625 L -85.296875 -26.09375 C -84.816406 -26.425781 -84.316406 -26.570312 -83.796875 -26.53125 C -83.273438 -26.5 -82.835938 -26.222656 -82.484375 -25.703125 C -82.078125 -25.117188 -82.207031 -24.050781 -82.875 -22.5 C -83.550781 -20.945312 -84.523438 -19.113281 -85.796875 -17 C -87.078125 -14.882812 -88.457031 -12.660156 -89.9375 -10.328125 C -91.414062 -8.003906 -92.773438 -5.757812 -94.015625 -3.59375 C -95.253906 -1.4375 -96.175781 0.460938 -96.78125 2.109375 C -97.382812 3.765625 -97.421875 4.976562 -96.890625 5.75 C -96.171875 6.800781 -95.238281 7.09375 -94.09375 6.625 C -92.957031 6.164062 -91.835938 5.554688 -90.734375 4.796875 L -35.296875 -33.21875 C -33.222656 -34.632812 -31.648438 -35.976562 -30.578125 -37.25 C -29.503906 -38.519531 -28.816406 -39.960938 -28.515625 -41.578125 L -11.9375 -17.390625 C -13.550781 -17.703125 -15.140625 -17.582031 -16.703125 -17.03125 C -18.273438 -16.476562 -20.097656 -15.492188 -22.171875 -14.078125 L -77.609375 23.9375 C -78.710938 24.695312 -79.6875 25.519531 -80.53125 26.40625 C -81.375 27.300781 -81.429688 28.285156 -80.703125 29.359375 C -80.179688 30.117188 -79.039062 30.515625 -77.28125 30.546875 C -75.519531 30.585938 -73.410156 30.414062 -70.953125 30.03125 C -68.492188 29.644531 -65.910156 29.179688 -63.203125 28.640625 C -60.492188 28.097656 -57.921875 27.609375 -55.484375 27.171875 C -53.054688 26.742188 -51.003906 26.488281 -49.328125 26.40625 C -47.660156 26.320312 -46.613281 26.59375 -46.1875 27.21875 Z M -46.1875 27.21875 "/></g></g></g><g fill="#ffffff" fill-opacity="1"><g transform="translate(189.635518, 522.568747)"><g><path d="M -42.03125 12.359375 C -46.113281 13.785156 -50.328125 14.828125 -54.671875 15.484375 C -59.023438 16.140625 -63.296875 16.300781 -67.484375 15.96875 C -71.671875 15.632812 -75.582031 14.773438 -79.21875 13.390625 C -82.863281 12.003906 -86.0625 9.984375 -88.8125 7.328125 C -91.5625 4.671875 -93.648438 1.304688 -95.078125 -2.765625 C -95.828125 -4.910156 -96.265625 -7.054688 -96.390625 -9.203125 C -96.523438 -11.359375 -96.675781 -13.5625 -96.84375 -15.8125 C -97.019531 -18.070312 -97.539062 -20.441406 -98.40625 -22.921875 C -99.082031 -24.847656 -99.890625 -26.28125 -100.828125 -27.21875 C -101.773438 -28.164062 -102.660156 -28.941406 -103.484375 -29.546875 C -104.316406 -30.148438 -104.878906 -30.863281 -105.171875 -31.6875 C -105.554688 -32.789062 -105.15625 -33.644531 -103.96875 -34.25 C -102.789062 -34.851562 -101.207031 -35.265625 -99.21875 -35.484375 C -97.226562 -35.710938 -95.1875 -35.757812 -93.09375 -35.625 C -91.644531 -35.519531 -89.867188 -35.25 -87.765625 -34.8125 C -85.660156 -34.375 -83.703125 -33.601562 -81.890625 -32.5 C -80.085938 -31.394531 -78.84375 -29.851562 -78.15625 -27.875 C -77.132812 -24.945312 -76.554688 -22.222656 -76.421875 -19.703125 C -76.285156 -17.191406 -76.378906 -14.8125 -76.703125 -12.5625 C -77.023438 -10.320312 -77.378906 -8.160156 -77.765625 -6.078125 C -78.160156 -4.003906 -78.367188 -1.941406 -78.390625 0.109375 C -78.421875 2.171875 -78.0625 4.273438 -77.3125 6.421875 C -76.832031 7.796875 -76.066406 8.796875 -75.015625 9.421875 C -73.960938 10.046875 -72.796875 10.410156 -71.515625 10.515625 C -70.234375 10.628906 -69.007812 10.585938 -67.84375 10.390625 C -66.675781 10.203125 -65.707031 9.972656 -64.9375 9.703125 C -64.539062 9.566406 -63.832031 9.332031 -62.8125 9 C -61.789062 8.675781 -60.71875 8.300781 -59.59375 7.875 C -58.476562 7.457031 -57.5625 6.984375 -56.84375 6.453125 C -56.132812 5.929688 -55.878906 5.394531 -56.078125 4.84375 C -56.359375 4.019531 -57.003906 3.304688 -58.015625 2.703125 C -59.035156 2.097656 -60.15625 1.203125 -61.375 0.015625 C -62.59375 -1.160156 -63.625 -2.960938 -64.46875 -5.390625 C -65.175781 -7.421875 -65.519531 -9.523438 -65.5 -11.703125 C -65.488281 -13.878906 -65.359375 -16.03125 -65.109375 -18.15625 C -64.859375 -20.28125 -64.691406 -22.328125 -64.609375 -24.296875 C -64.535156 -26.273438 -64.773438 -28.066406 -65.328125 -29.671875 C -65.773438 -30.929688 -66.398438 -31.820312 -67.203125 -32.34375 C -68.003906 -32.863281 -68.738281 -33.253906 -69.40625 -33.515625 C -70.082031 -33.773438 -70.5 -34.128906 -70.65625 -34.578125 C -70.882812 -35.234375 -70.609375 -35.898438 -69.828125 -36.578125 C -69.046875 -37.253906 -67.992188 -37.820312 -66.671875 -38.28125 C -65.296875 -38.757812 -63.71875 -39.015625 -61.9375 -39.046875 C -60.15625 -39.078125 -58.351562 -38.78125 -56.53125 -38.15625 C -54.707031 -37.53125 -53.023438 -36.476562 -51.484375 -35 C -49.941406 -33.519531 -48.734375 -31.519531 -47.859375 -29 C -47.003906 -26.5625 -46.738281 -24.175781 -47.0625 -21.84375 C -47.394531 -19.507812 -48.019531 -17.265625 -48.9375 -15.109375 C -49.863281 -12.960938 -50.8125 -10.929688 -51.78125 -9.015625 C -52.75 -7.109375 -53.515625 -5.316406 -54.078125 -3.640625 C -54.640625 -1.960938 -54.675781 -0.4375 -54.1875 0.9375 C -53.882812 1.820312 -53.40625 2.304688 -52.75 2.390625 C -52.101562 2.472656 -51.429688 2.359375 -50.734375 2.046875 C -50.035156 1.742188 -49.4375 1.410156 -48.9375 1.046875 C -44.457031 -2.359375 -40.78125 -6.1875 -37.90625 -10.4375 C -35.03125 -14.695312 -33.125 -19.023438 -32.1875 -23.421875 C -31.257812 -27.828125 -31.457031 -31.929688 -32.78125 -35.734375 C -33.800781 -38.648438 -35.050781 -40.898438 -36.53125 -42.484375 C -38.007812 -44.078125 -39.5625 -45.253906 -41.1875 -46.015625 C -42.8125 -46.773438 -44.359375 -47.316406 -45.828125 -47.640625 C -47.304688 -47.960938 -48.566406 -48.296875 -49.609375 -48.640625 C -50.660156 -48.984375 -51.332031 -49.566406 -51.625 -50.390625 C -51.800781 -50.890625 -51.703125 -51.445312 -51.328125 -52.0625 C -50.953125 -52.6875 -49.800781 -53.335938 -47.875 -54.015625 C -45.070312 -54.992188 -41.890625 -55.425781 -38.328125 -55.3125 C -34.765625 -55.207031 -31.195312 -54.460938 -27.625 -53.078125 C -24.050781 -51.691406 -20.800781 -49.59375 -17.875 -46.78125 C -14.945312 -43.976562 -12.710938 -40.375 -11.171875 -35.96875 C -9.554688 -31.34375 -8.921875 -26.695312 -9.265625 -22.03125 C -9.617188 -17.375 -11.023438 -12.894531 -13.484375 -8.59375 C -15.953125 -4.300781 -19.550781 -0.359375 -24.28125 3.234375 C -29.007812 6.835938 -34.925781 9.878906 -42.03125 12.359375 Z M -42.03125 12.359375 "/></g></g></g><g fill="#ffffff" fill-opacity="1"><g transform="translate(168.82227, 466.116987)"><g><path d="M -87.328125 5.9375 L -90.078125 -29.234375 C -90.628906 -36.328125 -89.953125 -42.097656 -88.046875 -46.546875 C -86.140625 -51.003906 -83.359375 -54.351562 -79.703125 -56.59375 C -76.054688 -58.84375 -71.875 -60.148438 -67.15625 -60.515625 C -63.78125 -60.773438 -60.410156 -60.582031 -57.046875 -59.9375 C -53.691406 -59.300781 -50.609375 -58.09375 -47.796875 -56.3125 C -44.992188 -54.539062 -42.671875 -52.175781 -40.828125 -49.21875 C -38.992188 -46.257812 -37.90625 -42.597656 -37.5625 -38.234375 C -37.3125 -34.921875 -37.570312 -32.019531 -38.34375 -29.53125 C -39.113281 -27.039062 -40.144531 -24.863281 -41.4375 -23 C -42.726562 -21.144531 -44.050781 -19.507812 -45.40625 -18.09375 C -46.757812 -16.675781 -47.875 -15.421875 -48.75 -14.328125 C -49.625 -13.234375 -50.023438 -12.191406 -49.953125 -11.203125 C -49.859375 -10.035156 -49.503906 -9.269531 -48.890625 -8.90625 C -48.273438 -8.550781 -47.617188 -8.398438 -46.921875 -8.453125 C -45.753906 -8.546875 -44.632812 -9.242188 -43.5625 -10.546875 C -42.5 -11.859375 -41.492188 -13.59375 -40.546875 -15.75 C -39.609375 -17.90625 -38.726562 -20.269531 -37.90625 -22.84375 C -37.082031 -25.425781 -36.28125 -28.015625 -35.5 -30.609375 C -34.757812 -33.234375 -33.9375 -36.03125 -33.03125 -39 C -32.125 -41.96875 -31.078125 -44.875 -29.890625 -47.71875 C -28.703125 -50.5625 -27.320312 -53.15625 -25.75 -55.5 C -24.175781 -57.84375 -22.335938 -59.769531 -20.234375 -61.28125 C -18.128906 -62.789062 -15.707031 -63.648438 -12.96875 -63.859375 C -10.175781 -64.078125 -8.117188 -63.8125 -6.796875 -63.0625 C -5.484375 -62.320312 -4.742188 -60.878906 -4.578125 -58.734375 L -3.109375 -39.875 C -3.066406 -39.289062 -3.171875 -38.710938 -3.421875 -38.140625 C -3.671875 -37.578125 -4.175781 -37.265625 -4.9375 -37.203125 C -5.976562 -37.117188 -6.898438 -37.175781 -7.703125 -37.375 C -8.515625 -37.570312 -9.378906 -37.75 -10.296875 -37.90625 C -11.210938 -38.070312 -12.398438 -38.097656 -13.859375 -37.984375 C -15.773438 -37.835938 -17.742188 -37.082031 -19.765625 -35.71875 C -21.796875 -34.363281 -23.769531 -32.628906 -25.6875 -30.515625 C -27.601562 -28.410156 -29.390625 -26.148438 -31.046875 -23.734375 C -32.703125 -21.328125 -34.160156 -18.988281 -35.421875 -16.71875 C -36.679688 -14.457031 -37.644531 -12.453125 -38.3125 -10.703125 C -38.988281 -8.953125 -39.300781 -7.726562 -39.25 -7.03125 C -39.207031 -6.445312 -38.945312 -6.054688 -38.46875 -5.859375 C -37.988281 -5.660156 -37.628906 -5.570312 -37.390625 -5.59375 C -35.929688 -5.695312 -34.664062 -6.363281 -33.59375 -7.59375 C -32.519531 -8.832031 -31.5 -10.394531 -30.53125 -12.28125 C -29.570312 -14.164062 -28.546875 -16.160156 -27.453125 -18.265625 C -26.359375 -20.367188 -25.09375 -22.367188 -23.65625 -24.265625 C -22.226562 -26.160156 -20.507812 -27.757812 -18.5 -29.0625 C -16.5 -30.363281 -14.101562 -31.125 -11.3125 -31.34375 C -10.15625 -31.4375 -8.867188 -31.316406 -7.453125 -30.984375 C -6.046875 -30.648438 -4.816406 -30.070312 -3.765625 -29.25 C -2.710938 -28.425781 -2.128906 -27.285156 -2.015625 -25.828125 L -0.078125 -0.96875 C -1.335938 -2.03125 -2.78125 -2.71875 -4.40625 -3.03125 C -6.039062 -3.34375 -8.109375 -3.40625 -10.609375 -3.21875 L -25.53125 -2.046875 L -43.9375 -0.515625 L -77.28125 2.09375 C -79.78125 2.28125 -81.8125 2.65625 -83.375 3.21875 C -84.9375 3.78125 -86.253906 4.6875 -87.328125 5.9375 Z M -71.453125 -25.59375 C -71.273438 -23.382812 -71 -20.976562 -70.625 -18.375 C -70.25 -15.769531 -69.691406 -13.320312 -68.953125 -11.03125 C -68.210938 -8.75 -67.203125 -6.910156 -65.921875 -5.515625 C -64.648438 -4.128906 -63.023438 -3.507812 -61.046875 -3.65625 C -59.066406 -3.8125 -57.566406 -4.71875 -56.546875 -6.375 C -55.535156 -8.03125 -54.84375 -10.175781 -54.46875 -12.8125 C -54.09375 -15.457031 -53.9375 -18.3125 -54 -21.375 C -54.0625 -24.4375 -54.210938 -27.476562 -54.453125 -30.5 C -54.679688 -33.53125 -55.003906 -36.582031 -55.421875 -39.65625 C -55.847656 -42.738281 -56.445312 -45.546875 -57.21875 -48.078125 C -58 -50.617188 -59.019531 -52.628906 -60.28125 -54.109375 C -61.539062 -55.597656 -63.160156 -56.265625 -65.140625 -56.109375 C -66.710938 -55.992188 -67.972656 -55.253906 -68.921875 -53.890625 C -69.867188 -52.523438 -70.578125 -50.753906 -71.046875 -48.578125 C -71.523438 -46.398438 -71.804688 -43.992188 -71.890625 -41.359375 C -71.984375 -38.722656 -71.976562 -36.03125 -71.875 -33.28125 C -71.78125 -30.53125 -71.640625 -27.96875 -71.453125 -25.59375 Z M -71.453125 -25.59375 "/></g></g></g></svg>